<svg width="210" height="249" viewBox="0 0 210 249" fill="none" xmlns="http://www.w3.org/2000/svg">
<path d="M-0.000749588 69V1.8H29.0873C35.1033 1.8 40.2873 2.792 44.6393 4.776C48.9913 6.696 52.3513 9.48 54.7193 13.128C57.0873 16.776 58.2713 21.128 58.2713 26.184C58.2713 31.176 57.0873 35.496 54.7193 39.144C52.3513 42.792 48.9913 45.608 44.6393 47.592C40.2873 49.512 35.1033 50.472 29.0873 50.472H8.63925L15.5513 43.464V69H-0.000749588ZM15.5513 45.192L8.63925 37.8H28.2233C33.0233 37.8 36.6073 36.776 38.9753 34.728C41.3433 32.68 42.5273 29.832 42.5273 26.184C42.5273 22.472 41.3433 19.592 38.9753 17.544C36.6073 15.496 33.0233 14.472 28.2233 14.472H8.63925L15.5513 7.08V45.192ZM69.3743 69V1.8H98.4623C104.478 1.8 109.662 2.792 114.014 4.776C118.366 6.696 121.726 9.48 124.094 13.128C126.462 16.776 127.646 21.128 127.646 26.184C127.646 31.176 126.462 35.496 124.094 39.144C121.726 42.728 118.366 45.48 114.014 47.4C109.662 49.32 104.478 50.28 98.4623 50.28H78.0143L84.9263 43.464V69H69.3743ZM112.094 69L95.2943 44.616H111.902L128.894 69H112.094ZM84.9263 45.192L78.0143 37.896H97.5983C102.398 37.896 105.982 36.872 108.35 34.824C110.718 32.712 111.902 29.832 111.902 26.184C111.902 22.472 110.718 19.592 108.35 17.544C105.982 15.496 102.398 14.472 97.5983 14.472H78.0143L84.9263 7.08V45.192ZM172.608 70.152C167.296 70.152 162.368 69.288 157.824 67.56C153.344 65.832 149.44 63.4 146.112 60.264C142.848 57.128 140.288 53.448 138.432 49.224C136.64 45 135.744 40.392 135.744 35.4C135.744 30.408 136.64 25.8 138.432 21.576C140.288 17.352 142.88 13.672 146.208 10.536C149.536 7.4 153.44 4.96799 157.92 3.23999C162.4 1.512 167.264 0.647999 172.512 0.647999C177.824 0.647999 182.688 1.512 187.104 3.23999C191.584 4.96799 195.456 7.4 198.72 10.536C202.048 13.672 204.64 17.352 206.496 21.576C208.352 25.736 209.28 30.344 209.28 35.4C209.28 40.392 208.352 45.032 206.496 49.32C204.64 53.544 202.048 57.224 198.72 60.36C195.456 63.432 191.584 65.832 187.104 67.56C182.688 69.288 177.856 70.152 172.608 70.152ZM172.512 56.904C175.52 56.904 178.272 56.392 180.768 55.368C183.328 54.344 185.568 52.872 187.488 50.952C189.408 49.032 190.88 46.76 191.904 44.136C192.992 41.512 193.536 38.6 193.536 35.4C193.536 32.2 192.992 29.288 191.904 26.664C190.88 24.04 189.408 21.768 187.488 19.848C185.632 17.928 183.424 16.456 180.864 15.432C178.304 14.408 175.52 13.896 172.512 13.896C169.504 13.896 166.72 14.408 164.16 15.432C161.664 16.456 159.456 17.928 157.536 19.848C155.616 21.768 154.112 24.04 153.024 26.664C152 29.288 151.488 32.2 151.488 35.4C151.488 38.536 152 41.448 153.024 44.136C154.112 46.76 155.584 49.032 157.44 50.952C159.36 52.872 161.6 54.344 164.16 55.368C166.72 56.392 169.504 56.904 172.512 56.904ZM48.2805 159V91.8H61.1445L89.7525 139.224H82.9365L111.065 91.8H123.833L124.025 159H109.433L109.337 114.168H112.025L89.5605 151.896H82.5525L59.6085 114.168H62.8725V159H48.2805ZM172.608 160.152C167.296 160.152 162.368 159.288 157.824 157.56C153.344 155.832 149.44 153.4 146.112 150.264C142.848 147.128 140.288 143.448 138.432 139.224C136.64 135 135.744 130.392 135.744 125.4C135.744 120.408 136.64 115.8 138.432 111.576C140.288 107.352 142.88 103.672 146.208 100.536C149.536 97.4 153.44 94.968 157.92 93.24C162.4 91.512 167.264 90.648 172.512 90.648C177.824 90.648 182.688 91.512 187.104 93.24C191.584 94.968 195.456 97.4 198.72 100.536C202.048 103.672 204.64 107.352 206.496 111.576C208.352 115.736 209.28 120.344 209.28 125.4C209.28 130.392 208.352 135.032 206.496 139.32C204.64 143.544 202.048 147.224 198.72 150.36C195.456 153.432 191.584 155.832 187.104 157.56C182.688 159.288 177.856 160.152 172.608 160.152ZM172.512 146.904C175.52 146.904 178.272 146.392 180.768 145.368C183.328 144.344 185.568 142.872 187.488 140.952C189.408 139.032 190.88 136.76 191.904 134.136C192.992 131.512 193.536 128.6 193.536 125.4C193.536 122.2 192.992 119.288 191.904 116.664C190.88 114.04 189.408 111.768 187.488 109.848C185.632 107.928 183.424 106.456 180.864 105.432C178.304 104.408 175.52 103.896 172.512 103.896C169.504 103.896 166.72 104.408 164.16 105.432C161.664 106.456 159.456 107.928 157.536 109.848C155.616 111.768 154.112 114.04 153.024 116.664C152 119.288 151.488 122.2 151.488 125.4C151.488 128.536 152 131.448 153.024 134.136C154.112 136.76 155.584 139.032 157.44 140.952C159.36 142.872 161.6 144.344 164.16 145.368C166.72 146.392 169.504 146.904 172.512 146.904ZM106.503 249L77.511 181.8H94.311L119.655 241.32H109.767L135.495 181.8H150.951L121.863 249H106.503ZM170.866 208.872H203.218V220.968H170.866V208.872ZM172.018 236.52H208.594V249H156.562V181.8H207.346V194.28H172.018V236.52Z" fill="#EBB24C"/>
</svg>
