<svg width="59" height="68" viewBox="0 0 59 68" fill="none" xmlns="http://www.w3.org/2000/svg">
<path d="M0.543421 68V0.799995H29.6314C35.6474 0.799995 40.8314 1.792 45.1834 3.776C49.5354 5.696 52.8954 8.48 55.2634 12.128C57.6314 15.776 58.8154 20.128 58.8154 25.184C58.8154 30.176 57.6314 34.496 55.2634 38.144C52.8954 41.792 49.5354 44.608 45.1834 46.592C40.8314 48.512 35.6474 49.472 29.6314 49.472H9.18342L16.0954 42.464V68H0.543421ZM16.0954 44.192L9.18342 36.8H28.7674C33.5674 36.8 37.1514 35.776 39.5194 33.728C41.8874 31.68 43.0714 28.832 43.0714 25.184C43.0714 21.472 41.8874 18.592 39.5194 16.544C37.1514 14.496 33.5674 13.472 28.7674 13.472H9.18342L16.0954 6.08V44.192Z" fill="#EBB24C"/>
</svg>
